<?xml version="1.0" standalone="no"?>
<!DOCTYPE svg PUBLIC "-//W3C//DTD SVG 20010904//EN"
 "http://www.w3.org/TR/2001/REC-SVG-20010904/DTD/svg10.dtd">
<svg version="1.0" xmlns="http://www.w3.org/2000/svg"
 width="1500.000000pt" height="1500.000000pt" viewBox="0 0 1500.000000 1500.000000"
 preserveAspectRatio="xMidYMid meet">
<metadata>
Created by potrace 1.14, written by Peter Selinger 2001-2017
</metadata>
<g transform="translate(0.000000,1500.000000) scale(0.100000,-0.100000)"
fill="#000000" stroke="none">
<path d="M0 7500 l0 -7500 7500 0 7500 0 0 7500 0 7500 -7500 0 -7500 0 0
-7500z m7697 2265 c126 -242 622 -1195 1103 -2117 l873 -1678 52 98 c28 53
529 1002 1114 2108 584 1106 1068 2020 1075 2030 8 10 17 17 19 14 3 -3 140
-1155 304 -2560 l299 -2555 -139 -3 c-77 -1 -142 0 -145 3 -3 3 -121 1003
-263 2223 -141 1219 -258 2225 -260 2236 -2 11 -307 -555 -745 -1385 -408
-772 -888 -1680 -1065 -2016 -210 -397 -329 -613 -339 -613 -10 0 -378 698
-1054 2000 -572 1100 -1042 1998 -1044 1995 -3 -3 -141 -1001 -306 -2219 -166
-1219 -305 -2218 -308 -2221 -3 -3 -32 -5 -65 -3 l-59 3 158 1170 c86 644 241
1793 343 2555 103 762 189 1389 192 1393 3 5 11 3 18 -5 7 -7 116 -211 242
-453z m-2259 143 c-72 -123 -224 -383 -338 -578 -115 -195 -701 -1194 -1303
-2220 l-1095 -1865 1529 -3 1529 -2 0 -65 0 -65 -1736 0 -1736 0 14 23 c8 12
74 123 146 247 73 124 712 1213 1420 2420 l1288 2195 -1528 3 -1528 2 0 65 0
65 1734 0 1735 0 -131 -222z"/>
</g>
</svg>
